<?xml version="1.0" standalone="no"?>
<!DOCTYPE svg PUBLIC "-//W3C//DTD SVG 20010904//EN"
 "http://www.w3.org/TR/2001/REC-SVG-20010904/DTD/svg10.dtd">
<svg version="1.0" xmlns="http://www.w3.org/2000/svg"
 width="128.000000pt" height="128.000000pt" viewBox="0 0 128.000000 128.000000"
 preserveAspectRatio="xMidYMid meet">
<metadata>
Created by potrace 1.14, written by Peter Selinger 2001-2017
</metadata>
<g transform="translate(0.000000,128.000000) scale(0.100000,-0.100000)"
fill="#000000" stroke="none">
<path d="M860 1211 c-45 -7 -100 -35 -100 -53 0 -5 -24 -8 -52 -8 -29 1 -79
-4 -111 -11 -42 -9 -63 -9 -80 -1 -60 29 -90 31 -149 5 -53 -23 -48 -57 17
-119 27 -27 38 -31 71 -27 24 2 55 -4 87 -17 l49 -21 15 20 c9 13 25 21 43 21
23 0 30 -6 39 -32 13 -40 12 -76 -2 -105 -6 -13 -8 -24 -6 -26 2 -1 22 -16 44
-33 53 -41 82 -47 144 -28 50 15 62 29 40 51 -9 9 -6 19 10 41 27 39 27 64 -2
98 -19 21 -29 26 -50 20 -34 -8 -57 -32 -64 -67 -7 -36 -12 -36 -41 1 -21 27
-22 33 -10 57 20 43 72 64 130 53 53 -10 78 -5 78 16 0 8 7 14 15 14 8 0 15 4
15 9 0 5 7 17 16 26 14 14 15 22 5 55 -19 65 -47 76 -151 61z"/>
<path d="M1040 1110 c0 -5 5 -10 10 -10 6 0 10 5 10 10 0 6 -4 10 -10 10 -5 0
-10 -4 -10 -10z"/>
<path d="M1075 1101 c2 -5 0 -22 -5 -39 -8 -30 -7 -32 16 -30 51 5 60 56 11
69 -15 4 -25 4 -22 0z m25 -45 c0 -3 -4 -8 -10 -11 -5 -3 -10 -1 -10 4 0 6 5
11 10 11 6 0 10 -2 10 -4z"/>
<path d="M1151 1041 c3 -29 -1 -36 -11 -21 -8 13 -13 11 -32 -10 -20 -21 -30
-25 -71 -22 -48 3 -48 3 -41 -25 10 -42 10 -42 67 -38 38 3 57 -1 70 -13 18
-16 20 -15 38 6 10 13 24 20 30 16 11 -6 10 8 -3 107 -1 10 -12 17 -26 17 -15
0 -22 -6 -21 -17z"/>
<path d="M16 1042 c-3 -5 0 -24 6 -43 6 -19 12 -40 14 -46 2 -7 10 -13 19 -13
17 0 21 35 5 45 -5 3 -10 14 -10 24 0 22 -26 46 -34 33z"/>
<path d="M150 1000 c-6 -21 -15 -42 -20 -45 -6 -4 -8 -10 -5 -14 2 -5 -3 -23
-11 -41 -12 -22 -22 -30 -35 -27 -24 6 -27 -5 -24 -103 3 -99 14 -132 50 -156
26 -17 43 -20 133 -27 23 -2 48 -9 54 -15 13 -13 38 -16 38 -4 -1 18 -29 42
-44 36 -21 -8 -29 15 -17 47 l9 24 10 -27 c14 -33 21 -37 74 -42 23 -2 50 -6
58 -8 22 -5 30 -32 11 -39 -13 -5 -10 -9 11 -19 17 -8 33 -27 40 -48 10 -28
24 -39 67 -58 49 -22 91 -31 91 -19 0 11 -34 44 -41 39 -4 -2 -5 8 -3 23 8 48
6 65 -12 77 -23 18 -14 49 16 52 14 2 61 10 105 18 146 27 347 47 360 36 14
-12 13 -46 -2 -61 -6 -6 -30 -12 -54 -15 -111 -11 -131 -16 -160 -43 -16 -16
-29 -31 -29 -35 0 -15 -43 -54 -74 -66 -19 -7 -39 -24 -45 -37 -12 -26 -6 -31
39 -34 54 -4 77 2 108 30 17 16 34 25 38 20 9 -16 22 0 17 21 -3 11 0 20 6 20
6 0 11 -4 11 -10 0 -5 5 -10 11 -10 5 0 8 4 4 9 -3 5 -1 12 5 16 5 3 16 -9 23
-27 15 -35 57 -79 57 -60 0 6 6 9 14 6 15 -6 86 33 86 47 0 6 10 0 23 -11 l22
-21 3 20 c4 24 17 28 26 6 3 -9 12 -12 22 -8 16 6 16 7 0 18 -24 18 -20 52 6
58 12 4 28 1 35 -5 8 -6 17 -8 21 -4 4 4 0 13 -8 19 -9 7 -14 24 -12 40 2 18
-2 29 -12 33 -9 3 -16 12 -16 20 0 8 -5 14 -11 14 -7 0 -8 4 -2 13 5 6 10 38
12 70 2 49 0 62 -18 78 -12 11 -21 17 -21 13 0 -3 -7 -1 -15 6 -8 6 -19 9 -25
5 -5 -3 -10 1 -10 9 0 22 -13 20 -41 -6 -21 -20 -36 -23 -94 -22 -39 0 -83 -5
-100 -12 -31 -13 -172 -27 -285 -28 -57 -1 -65 1 -62 17 2 12 -6 19 -28 23
-33 7 -38 19 -16 43 27 30 30 67 7 90 -30 30 -68 27 -101 -9 -37 -39 -52 -38
-50 3 3 52 1 57 -22 57 -12 0 -32 9 -44 21 -28 26 -44 17 -44 -24 0 -23 7 -38
25 -51 23 -17 24 -20 10 -47 -14 -26 -19 -28 -58 -23 -23 3 -50 5 -59 5 -20 0
-24 14 -8 24 5 3 10 19 10 34 0 16 9 40 20 54 32 41 21 87 -22 87 -12 0 -21
-12 -28 -40z m26 -197 c-10 -10 -19 5 -10 18 6 11 8 11 12 0 2 -7 1 -15 -2
-18z m100 -8 c-3 -9 3 -24 14 -35 11 -11 20 -24 20 -30 0 -21 -36 -45 -67 -45
-37 0 -51 11 -35 27 7 7 12 21 12 33 0 15 -3 16 -9 7 -7 -11 -10 -10 -15 3 -3
9 -4 21 0 26 7 12 34 11 34 -1 0 -18 18 -11 25 10 3 11 11 20 17 20 5 0 8 -7
4 -15z m914 -240 c19 -22 -5 -55 -38 -53 -44 3 -54 16 -36 48 18 29 52 31 74
5z m-190 -65 c0 -5 -4 -10 -9 -10 -6 0 -13 5 -16 10 -3 6 1 10 9 10 9 0 16 -4
16 -10z m120 -6 c0 -2 -7 -4 -15 -4 -8 0 -15 4 -15 10 0 5 7 7 15 4 8 -4 15
-8 15 -10z"/>
<path d="M650 400 c0 -5 5 -10 10 -10 6 0 10 5 10 10 0 6 -4 10 -10 10 -5 0
-10 -4 -10 -10z"/>
<path d="M1137 367 c-4 -10 -7 -30 -7 -43 0 -13 -4 -24 -10 -24 -5 0 -10 -4
-10 -10 0 -17 21 -11 40 13 10 12 15 26 10 32 -4 6 -10 19 -12 30 -3 19 -4 19
-11 2z"/>
<path d="M1187 324 c-8 -8 1 -24 14 -24 5 0 9 7 9 15 0 15 -12 20 -23 9z"/>
<path d="M1241 299 c-27 -36 -21 -59 14 -59 23 0 25 4 25 45 0 25 -4 45 -8 45
-5 0 -18 -14 -31 -31z"/>
</g>
</svg>
